<mxfile host="app.diagrams.net" modified="2022-06-27T06:37:01.085Z" agent="5.0 (Windows)" etag="TPvhUpP29lL9jJccYtTK" version="17.1.5" type="github">
  <diagram id="YQ7Ymlh_mDtBpYAp9ZM7" name="Page-1">
    <mxGraphModel dx="1422" dy="791" grid="1" gridSize="10" guides="1" tooltips="1" connect="1" arrows="1" fold="1" page="1" pageScale="1" pageWidth="827" pageHeight="1169" math="0" shadow="0">
      <root>
        <mxCell id="0" />
        <mxCell id="1" parent="0" />
        <mxCell id="PYzpzJKLUOx5a9hhbfxr-8" style="edgeStyle=orthogonalEdgeStyle;rounded=0;orthogonalLoop=1;jettySize=auto;html=1;exitX=0.5;exitY=1;exitDx=0;exitDy=0;entryX=0.5;entryY=0;entryDx=0;entryDy=0;elbow=vertical;" edge="1" parent="1" source="PYzpzJKLUOx5a9hhbfxr-1" target="PYzpzJKLUOx5a9hhbfxr-5">
          <mxGeometry relative="1" as="geometry" />
        </mxCell>
        <mxCell id="PYzpzJKLUOx5a9hhbfxr-34" value="Go(2,0)" style="edgeLabel;html=1;align=center;verticalAlign=middle;resizable=0;points=[];" vertex="1" connectable="0" parent="PYzpzJKLUOx5a9hhbfxr-8">
          <mxGeometry x="0.2635" y="3" relative="1" as="geometry">
            <mxPoint as="offset" />
          </mxGeometry>
        </mxCell>
        <mxCell id="PYzpzJKLUOx5a9hhbfxr-25" style="edgeStyle=orthogonalEdgeStyle;rounded=0;orthogonalLoop=1;jettySize=auto;html=1;exitX=0.25;exitY=1;exitDx=0;exitDy=0;entryX=0.25;entryY=0;entryDx=0;entryDy=0;elbow=vertical;verticalAlign=middle;" edge="1" parent="1" source="PYzpzJKLUOx5a9hhbfxr-1" target="PYzpzJKLUOx5a9hhbfxr-24">
          <mxGeometry relative="1" as="geometry">
            <Array as="points">
              <mxPoint x="400" y="200" />
              <mxPoint x="400" y="200" />
            </Array>
          </mxGeometry>
        </mxCell>
        <mxCell id="PYzpzJKLUOx5a9hhbfxr-43" value="Go(1,0)" style="edgeLabel;html=1;align=center;verticalAlign=middle;resizable=0;points=[];" vertex="1" connectable="0" parent="PYzpzJKLUOx5a9hhbfxr-25">
          <mxGeometry x="0.055" relative="1" as="geometry">
            <mxPoint y="-22" as="offset" />
          </mxGeometry>
        </mxCell>
        <mxCell id="PYzpzJKLUOx5a9hhbfxr-1" value="(3,3,0)" style="rounded=0;whiteSpace=wrap;html=1;" vertex="1" parent="1">
          <mxGeometry x="374" y="120" width="104" height="40" as="geometry" />
        </mxCell>
        <mxCell id="PYzpzJKLUOx5a9hhbfxr-12" style="edgeStyle=orthogonalEdgeStyle;rounded=0;orthogonalLoop=1;jettySize=auto;html=1;exitX=0.5;exitY=1;exitDx=0;exitDy=0;entryX=0.5;entryY=0;entryDx=0;entryDy=0;elbow=vertical;" edge="1" parent="1" source="PYzpzJKLUOx5a9hhbfxr-2" target="PYzpzJKLUOx5a9hhbfxr-3">
          <mxGeometry relative="1" as="geometry" />
        </mxCell>
        <mxCell id="PYzpzJKLUOx5a9hhbfxr-37" value="Back(0,1)" style="edgeLabel;html=1;align=center;verticalAlign=middle;resizable=0;points=[];" vertex="1" connectable="0" parent="PYzpzJKLUOx5a9hhbfxr-12">
          <mxGeometry x="-0.2847" y="-2" relative="1" as="geometry">
            <mxPoint as="offset" />
          </mxGeometry>
        </mxCell>
        <mxCell id="PYzpzJKLUOx5a9hhbfxr-20" style="edgeStyle=orthogonalEdgeStyle;rounded=0;orthogonalLoop=1;jettySize=auto;html=1;exitX=0;exitY=0.5;exitDx=0;exitDy=0;entryX=0;entryY=0.5;entryDx=0;entryDy=0;elbow=vertical;" edge="1" parent="1" source="PYzpzJKLUOx5a9hhbfxr-2" target="PYzpzJKLUOx5a9hhbfxr-1">
          <mxGeometry relative="1" as="geometry" />
        </mxCell>
        <mxCell id="PYzpzJKLUOx5a9hhbfxr-45" value="Back(1,1)" style="edgeLabel;html=1;align=center;verticalAlign=middle;resizable=0;points=[];" vertex="1" connectable="0" parent="PYzpzJKLUOx5a9hhbfxr-20">
          <mxGeometry x="-0.4915" y="-1" relative="1" as="geometry">
            <mxPoint as="offset" />
          </mxGeometry>
        </mxCell>
        <mxCell id="PYzpzJKLUOx5a9hhbfxr-2" value="(2,2,1)" style="rounded=0;whiteSpace=wrap;html=1;" vertex="1" parent="1">
          <mxGeometry x="180" y="240" width="104" height="40" as="geometry" />
        </mxCell>
        <mxCell id="PYzpzJKLUOx5a9hhbfxr-13" style="edgeStyle=orthogonalEdgeStyle;rounded=0;orthogonalLoop=1;jettySize=auto;html=1;exitX=0.5;exitY=1;exitDx=0;exitDy=0;entryX=0.5;entryY=0;entryDx=0;entryDy=0;elbow=vertical;" edge="1" parent="1" source="PYzpzJKLUOx5a9hhbfxr-3" target="PYzpzJKLUOx5a9hhbfxr-4">
          <mxGeometry relative="1" as="geometry">
            <Array as="points">
              <mxPoint x="426" y="430" />
              <mxPoint x="426" y="430" />
            </Array>
          </mxGeometry>
        </mxCell>
        <mxCell id="PYzpzJKLUOx5a9hhbfxr-42" value="Go(2,0)" style="edgeLabel;html=1;align=center;verticalAlign=middle;resizable=0;points=[];" vertex="1" connectable="0" parent="PYzpzJKLUOx5a9hhbfxr-13">
          <mxGeometry x="0.0459" y="-3" relative="1" as="geometry">
            <mxPoint as="offset" />
          </mxGeometry>
        </mxCell>
        <mxCell id="PYzpzJKLUOx5a9hhbfxr-23" style="edgeStyle=orthogonalEdgeStyle;rounded=0;orthogonalLoop=1;jettySize=auto;html=1;exitX=0;exitY=0.5;exitDx=0;exitDy=0;entryX=0.106;entryY=1;entryDx=0;entryDy=0;entryPerimeter=0;elbow=vertical;" edge="1" parent="1" source="PYzpzJKLUOx5a9hhbfxr-3" target="PYzpzJKLUOx5a9hhbfxr-2">
          <mxGeometry relative="1" as="geometry" />
        </mxCell>
        <mxCell id="PYzpzJKLUOx5a9hhbfxr-39" value="Go(0,1)" style="edgeLabel;html=1;align=center;verticalAlign=middle;resizable=0;points=[];" vertex="1" connectable="0" parent="PYzpzJKLUOx5a9hhbfxr-23">
          <mxGeometry x="-0.2155" y="1" relative="1" as="geometry">
            <mxPoint as="offset" />
          </mxGeometry>
        </mxCell>
        <mxCell id="PYzpzJKLUOx5a9hhbfxr-31" style="edgeStyle=orthogonalEdgeStyle;rounded=0;orthogonalLoop=1;jettySize=auto;html=1;exitX=1;exitY=0.5;exitDx=0;exitDy=0;entryX=0.865;entryY=1.05;entryDx=0;entryDy=0;entryPerimeter=0;elbow=vertical;" edge="1" parent="1" source="PYzpzJKLUOx5a9hhbfxr-3" target="PYzpzJKLUOx5a9hhbfxr-5">
          <mxGeometry relative="1" as="geometry" />
        </mxCell>
        <mxCell id="PYzpzJKLUOx5a9hhbfxr-40" value="Go(1,0)" style="edgeLabel;html=1;align=center;verticalAlign=middle;resizable=0;points=[];" vertex="1" connectable="0" parent="PYzpzJKLUOx5a9hhbfxr-31">
          <mxGeometry x="-0.2267" relative="1" as="geometry">
            <mxPoint as="offset" />
          </mxGeometry>
        </mxCell>
        <mxCell id="PYzpzJKLUOx5a9hhbfxr-3" value="(2,3,0)" style="rounded=0;whiteSpace=wrap;html=1;" vertex="1" parent="1">
          <mxGeometry x="374" y="360" width="104" height="40" as="geometry" />
        </mxCell>
        <mxCell id="PYzpzJKLUOx5a9hhbfxr-19" style="edgeStyle=orthogonalEdgeStyle;rounded=0;orthogonalLoop=1;jettySize=auto;html=1;exitX=0.5;exitY=1;exitDx=0;exitDy=0;entryX=0.5;entryY=0;entryDx=0;entryDy=0;elbow=vertical;" edge="1" parent="1" source="PYzpzJKLUOx5a9hhbfxr-4">
          <mxGeometry relative="1" as="geometry">
            <mxPoint x="426" y="600" as="targetPoint" />
            <Array as="points">
              <mxPoint x="426" y="590" />
              <mxPoint x="426" y="590" />
            </Array>
          </mxGeometry>
        </mxCell>
        <mxCell id="PYzpzJKLUOx5a9hhbfxr-47" value="Back(x,y)" style="edgeLabel;html=1;align=center;verticalAlign=middle;resizable=0;points=[];" vertex="1" connectable="0" parent="PYzpzJKLUOx5a9hhbfxr-19">
          <mxGeometry x="0.1095" relative="1" as="geometry">
            <mxPoint as="offset" />
          </mxGeometry>
        </mxCell>
        <mxCell id="PYzpzJKLUOx5a9hhbfxr-4" value="(0,3,1)" style="rounded=0;whiteSpace=wrap;html=1;" vertex="1" parent="1">
          <mxGeometry x="374" y="480" width="104" height="40" as="geometry" />
        </mxCell>
        <mxCell id="PYzpzJKLUOx5a9hhbfxr-17" style="edgeStyle=orthogonalEdgeStyle;rounded=0;orthogonalLoop=1;jettySize=auto;html=1;exitX=0.5;exitY=1;exitDx=0;exitDy=0;elbow=vertical;" edge="1" parent="1" source="PYzpzJKLUOx5a9hhbfxr-5" target="PYzpzJKLUOx5a9hhbfxr-3">
          <mxGeometry relative="1" as="geometry" />
        </mxCell>
        <mxCell id="PYzpzJKLUOx5a9hhbfxr-38" value="Back(1.0)" style="edgeLabel;html=1;align=center;verticalAlign=middle;resizable=0;points=[];" vertex="1" connectable="0" parent="PYzpzJKLUOx5a9hhbfxr-17">
          <mxGeometry x="-0.2432" y="3" relative="1" as="geometry">
            <mxPoint as="offset" />
          </mxGeometry>
        </mxCell>
        <mxCell id="PYzpzJKLUOx5a9hhbfxr-21" style="edgeStyle=orthogonalEdgeStyle;rounded=0;orthogonalLoop=1;jettySize=auto;html=1;exitX=1;exitY=0.5;exitDx=0;exitDy=0;entryX=1;entryY=0.5;entryDx=0;entryDy=0;elbow=vertical;" edge="1" parent="1" source="PYzpzJKLUOx5a9hhbfxr-5" target="PYzpzJKLUOx5a9hhbfxr-1">
          <mxGeometry relative="1" as="geometry" />
        </mxCell>
        <mxCell id="PYzpzJKLUOx5a9hhbfxr-46" value="Back(2,0)" style="edgeLabel;html=1;align=center;verticalAlign=middle;resizable=0;points=[];" vertex="1" connectable="0" parent="PYzpzJKLUOx5a9hhbfxr-21">
          <mxGeometry x="-0.5" y="3" relative="1" as="geometry">
            <mxPoint as="offset" />
          </mxGeometry>
        </mxCell>
        <mxCell id="PYzpzJKLUOx5a9hhbfxr-5" value="(1,3,1)" style="rounded=0;whiteSpace=wrap;html=1;" vertex="1" parent="1">
          <mxGeometry x="590" y="240" width="104" height="40" as="geometry" />
        </mxCell>
        <mxCell id="PYzpzJKLUOx5a9hhbfxr-7" value="" style="endArrow=classic;html=1;rounded=0;exitX=0.5;exitY=1;exitDx=0;exitDy=0;entryX=0.5;entryY=0;entryDx=0;entryDy=0;edgeStyle=orthogonalEdgeStyle;elbow=vertical;" edge="1" parent="1" source="PYzpzJKLUOx5a9hhbfxr-1" target="PYzpzJKLUOx5a9hhbfxr-2">
          <mxGeometry width="50" height="50" relative="1" as="geometry">
            <mxPoint x="390" y="430" as="sourcePoint" />
            <mxPoint x="440" y="380" as="targetPoint" />
          </mxGeometry>
        </mxCell>
        <mxCell id="PYzpzJKLUOx5a9hhbfxr-33" value="Go(1,1)" style="edgeLabel;html=1;align=center;verticalAlign=middle;resizable=0;points=[];" vertex="1" connectable="0" parent="PYzpzJKLUOx5a9hhbfxr-7">
          <mxGeometry x="0.2263" y="1" relative="1" as="geometry">
            <mxPoint as="offset" />
          </mxGeometry>
        </mxCell>
        <mxCell id="PYzpzJKLUOx5a9hhbfxr-26" style="edgeStyle=orthogonalEdgeStyle;rounded=0;orthogonalLoop=1;jettySize=auto;html=1;exitX=0.75;exitY=0;exitDx=0;exitDy=0;entryX=0.75;entryY=1;entryDx=0;entryDy=0;elbow=vertical;" edge="1" parent="1" source="PYzpzJKLUOx5a9hhbfxr-24" target="PYzpzJKLUOx5a9hhbfxr-1">
          <mxGeometry relative="1" as="geometry">
            <Array as="points">
              <mxPoint x="452" y="200" />
              <mxPoint x="452" y="200" />
            </Array>
          </mxGeometry>
        </mxCell>
        <mxCell id="PYzpzJKLUOx5a9hhbfxr-44" value="Back(1,0)" style="edgeLabel;html=1;align=center;verticalAlign=middle;resizable=0;points=[];" vertex="1" connectable="0" parent="PYzpzJKLUOx5a9hhbfxr-26">
          <mxGeometry x="-0.0531" y="-2" relative="1" as="geometry">
            <mxPoint y="18" as="offset" />
          </mxGeometry>
        </mxCell>
        <mxCell id="PYzpzJKLUOx5a9hhbfxr-24" value="(2,3,1)" style="rounded=0;whiteSpace=wrap;html=1;" vertex="1" parent="1">
          <mxGeometry x="374" y="240" width="104" height="40" as="geometry" />
        </mxCell>
        <mxCell id="PYzpzJKLUOx5a9hhbfxr-32" value="..." style="rounded=0;whiteSpace=wrap;html=1;" vertex="1" parent="1">
          <mxGeometry x="374" y="600" width="104" height="40" as="geometry" />
        </mxCell>
      </root>
    </mxGraphModel>
  </diagram>
</mxfile>
